<?xml version="1.0" encoding="utf-8"?>
<!-- Generator: Adobe Illustrator 16.0.0, SVG Export Plug-In . SVG Version: 6.00 Build 0)  -->
<!DOCTYPE svg PUBLIC "-//W3C//DTD SVG 1.1//EN" "http://www.w3.org/Graphics/SVG/1.1/DTD/svg11.dtd">
<svg version="1.1" id="Layer_1" xmlns="http://www.w3.org/2000/svg" xmlns:xlink="http://www.w3.org/1999/xlink" x="0px" y="0px"
	 width="156.158px" height="42.611px" viewBox="0 0 156.158 42.611" enable-background="new 0 0 156.158 42.611"
	 xml:space="preserve">
<g>
	<g>
		<path fill="#303642" d="M42.435,21.307c0,11.66-9.452,21.109-21.111,21.109c-11.66,0-21.112-9.449-21.112-21.109
			c0-11.661,9.452-21.111,21.112-21.111C32.983,0.195,42.435,9.646,42.435,21.307"/>
		<path fill="#00A651" d="M6.317,13.783l-0.182,0.373C8.837,7.984,14.999,3.673,22.167,3.673c5.004,0,9.512,2.1,12.698,5.467
			l-1.997,2.107c-2.667-2.873-6.474-4.674-10.701-4.674c-5.366,0-10.055,2.896-12.591,7.21H6.317z"/>
		<path fill="#00A651" d="M35.435,32.57c-3.206,3.732-7.959,6.096-13.268,6.096c-7.437,0-13.791-4.641-16.321-11.188l1.678-2.113
			l0.493-0.619c1.593,6.334,7.324,11.02,14.15,11.02c4.35,0,8.256-1.904,10.931-4.926L35.435,32.57z"/>
		<path fill="#D1D3D4" d="M31.752,29.232c-2.269,2.641-5.633,4.312-9.386,4.312c-6.486,0-11.807-4.988-12.331-11.34l0.982-1.238
			l1.101-1.385h-2.029c0.779-6.085,5.979-10.789,12.277-10.789c3.538,0,6.728,1.487,8.982,3.865l-1.414,1.496
			c-1.885-2.035-4.578-3.307-7.568-3.307c-5.154,0-9.425,3.774-10.199,8.708c-0.081,0.525-0.125,1.064-0.125,1.612
			c0,0.271,0.011,0.539,0.03,0.807c0.411,5.324,4.861,9.52,10.294,9.52c3.078,0,5.84-1.35,7.729-3.484L31.752,29.232z"/>
		<polygon fill="#D1D3D4" points="29.263,19.556 29.263,21.975 10.168,21.975 10.168,20.967 11.321,19.582 10.168,19.582 
			10.168,19.556 		"/>
		<polyline fill="#D1D3D4" points="1.954,22.715 6.134,14.157 6.318,13.783 10.765,13.783 7.824,19.583 12.119,19.583 
			11.018,20.967 10.036,22.205 8.016,24.746 7.524,25.365 5.845,27.479 3.531,30.395 5.268,25.717 6.472,22.48 		"/>
		<polygon fill="#FFFFFF" points="49.047,17.282 49.047,4.56 52.16,1.445 61.419,1.445 64.478,4.505 64.478,7.401 60.796,7.401 
			60.796,5.858 59.524,4.587 54.109,4.587 52.729,5.967 52.729,15.875 54.109,17.256 59.524,17.256 60.796,15.983 60.796,14.44 
			64.478,14.44 64.478,17.337 61.419,20.396 52.16,20.396 		"/>
		<polygon fill="#FFFFFF" points="67.049,1.446 70.731,1.446 70.731,9.378 78.745,9.378 78.745,1.446 82.425,1.446 82.425,20.396 
			78.745,20.396 78.745,12.518 70.731,12.518 70.731,20.396 67.049,20.396 		"/>
		<path fill="#FFFFFF" d="M91.251,1.446h3.355l6.932,18.949h-3.736L96.259,16.2H89.6l-1.543,4.195h-3.736L91.251,1.446z
			 M95.447,13.168l-2.518-7.201h-0.054l-2.437,7.201H95.447z"/>
		<polygon fill="#FFFFFF" points="103.434,1.446 106.737,1.446 115.182,14.305 115.237,14.305 115.237,1.446 118.784,1.446 
			118.784,20.396 115.481,20.396 107.034,7.564 106.98,7.564 106.98,20.396 103.434,20.396 		"/>
		<polygon fill="#FFFFFF" points="122.031,17.282 122.031,4.56 125.144,1.445 134.565,1.445 137.624,4.505 137.624,7.401 
			133.942,7.401 133.942,5.858 132.669,4.587 127.093,4.587 125.713,5.967 125.713,15.875 127.093,17.256 132.724,17.256 
			134.051,15.93 134.051,12.979 129.99,12.979 129.99,9.838 137.624,9.838 137.624,17.282 134.511,20.396 125.144,20.396 		"/>
		<path fill="#FFFFFF" d="M145.637,1.446h3.356l6.931,18.949h-3.735l-1.543-4.195h-6.659l-1.543,4.195h-3.737L145.637,1.446z
			 M149.833,13.168l-2.518-7.201h-0.055l-2.436,7.201H149.833z"/>
		<polygon fill="#00A651" points="49.403,24.096 59.826,24.096 59.826,25.664 51.155,25.664 51.155,31.338 59.158,31.338 
			59.158,32.904 51.155,32.904 51.155,38.672 59.826,38.672 59.826,40.238 49.403,40.238 		"/>
		<polygon fill="#00A651" points="62.825,24.096 64.53,24.096 72.949,37.379 72.995,37.379 72.995,24.096 74.654,24.096 
			74.654,40.238 72.949,40.238 64.53,26.957 64.484,26.957 64.484,40.238 62.825,40.238 		"/>
		<polygon fill="#00A651" points="78.344,24.096 88.767,24.096 88.767,25.664 80.096,25.664 80.096,31.338 88.099,31.338 
			88.099,32.904 80.096,32.904 80.096,38.672 88.767,38.672 88.767,40.238 78.344,40.238 		"/>
		<path fill="#00A651" d="M103.203,35.305v4.934h-1.752v-4.451l-2.214-2.328h-5.719v6.779h-1.752V24.096h9.224l2.121,2.123v5.096
			l-1.867,1.867L103.203,35.305z M93.518,31.938h6.711l1.152-1.131v-4.059l-1.152-1.131h-6.711V31.938z"/>
		<polygon fill="#00A651" points="106.546,37.701 106.546,26.633 109.083,24.096 116.141,24.096 118.584,26.541 118.584,28.018 
			116.833,28.018 116.833,27.117 115.356,25.664 109.868,25.664 108.299,27.209 108.299,37.125 109.868,38.672 115.264,38.672 
			116.833,37.125 116.833,33.391 113.188,33.391 113.188,31.822 118.584,31.822 118.584,37.701 116.047,40.238 109.083,40.238 		"/>
		<polygon fill="#00A651" points="125.458,33.506 119.853,24.096 121.744,24.096 126.31,31.914 126.357,31.914 130.923,24.096 
			132.813,24.096 127.21,33.506 127.21,40.238 125.458,40.238 		"/>
	</g>
	<g>
		<path fill="#FFFFFF" d="M131.625,35.533v-4.418l0.543-0.543h0.661v0.389h-0.473l-0.295,0.289v4.148l0.295,0.289h0.473v0.389
			h-0.661L131.625,35.533z"/>
		<path fill="#FFFFFF" d="M133.448,31.256h2.36l0.542,0.543v1.328l-0.548,0.549h-1.906v1.711h-0.448V31.256z M135.613,33.285
			l0.295-0.289v-1.061l-0.295-0.289h-1.717v1.639H135.613z"/>
		<path fill="#FFFFFF" d="M137.984,31.652h-1.251v-0.396h2.95v0.396h-1.251v3.734h-0.448V31.652z"/>
		<path fill="#FFFFFF" d="M141.382,33.664l-1.434-2.408h0.483l1.168,2h0.012l1.168-2h0.484l-1.434,2.408v1.723h-0.448V33.664z"/>
		<path fill="#FFFFFF" d="M143.5,36.076v-0.389h0.472l0.295-0.289V31.25l-0.295-0.289H143.5v-0.389h0.661l0.542,0.543v4.418
			l-0.542,0.543H143.5z"/>
		<path fill="#FFFFFF" d="M147.086,31.256h0.448v3.734h2.101v0.396h-2.549V31.256z"/>
		<path fill="#FFFFFF" d="M150.567,31.652h-1.251v-0.396h2.95v0.396h-1.251v3.734h-0.448V31.652z"/>
		<path fill="#FFFFFF" d="M152.915,31.256h2.384l0.648,0.65v2.83l-0.648,0.65h-2.384V31.256z M155.097,34.984l0.401-0.395v-2.537
			l-0.401-0.395h-1.734v3.326H155.097z"/>
	</g>
</g>
</svg>
