<svg xmlns="http://www.w3.org/2000/svg" width="42.611" height="42.611" viewBox="0 0 42.611 42.611">
	<path fill="#303642" d="M42.435,21.307c0,11.66-9.452,21.109-21.111,21.109c-11.66,0-21.112-9.449-21.112-21.109c0-11.661,9.452-21.111,21.112-21.111C32.983,0.195,42.435,9.646,42.435,21.307"/>
	<path fill="#00A651" d="M6.317,13.783l-0.182,0.373C8.837,7.984,14.999,3.673,22.167,3.673c5.004,0,9.512,2.1,12.698,5.467l-1.997,2.107c-2.667-2.873-6.474-4.674-10.701-4.674c-5.366,0-10.055,2.896-12.591,7.21H6.317z"/>
	<path fill="#00A651" d="M35.435,32.57c-3.206,3.732-7.959,6.096-13.268,6.096c-7.437,0-13.791-4.641-16.321-11.188l1.678-2.113l0.493-0.619c1.593,6.334,7.324,11.02,14.15,11.02c4.35,0,8.256-1.904,10.931-4.926L35.435,32.57z"/>
	<path fill="#D1D3D4" d="M31.752,29.232c-2.269,2.641-5.633,4.312-9.386,4.312c-6.486,0-11.807-4.988-12.331-11.34l0.982-1.238l1.101-1.385h-2.029c0.779-6.085,5.979-10.789,12.277-10.789c3.538,0,6.728,1.487,8.982,3.865l-1.414,1.496c-1.885-2.035-4.578-3.307-7.568-3.307c-5.154,0-9.425,3.774-10.199,8.708c-0.081,0.525-0.125,1.064-0.125,1.612c0,0.271,0.011,0.539,0.03,0.807c0.411,5.324,4.861,9.52,10.294,9.52c3.078,0,5.84-1.35,7.729-3.484L31.752,29.232z"/>
	<polygon fill="#D1D3D4" points="29.263,19.556 29.263,21.975 10.168,21.975 10.168,20.967 11.321,19.582 10.168,19.582 10.168,19.556 "/>
	<polyline fill="#D1D3D4" points="1.954,22.715 6.134,14.157 6.318,13.783 10.765,13.783 7.824,19.583 12.119,19.583 11.018,20.967 10.036,22.205 8.016,24.746 7.524,25.365 5.845,27.479 3.531,30.395 5.268,25.717 6.472,22.48 "/>
</svg>